<svg width="20" height="21" viewBox="0 0 20 21" fill="none" xmlns="http://www.w3.org/2000/svg">
<path d="M13.8573 12.0757L14.2373 11.6982L13.3548 10.8116L12.9765 11.1891L13.8573 12.0757ZM15.5115 11.5399L17.104 12.4057L17.6998 11.3074L16.1082 10.4424L15.5115 11.5399ZM17.4098 14.1257L16.2265 15.3032L17.1073 16.1891L18.2907 15.0124L17.4098 14.1257ZM15.5048 15.6816C14.2965 15.7949 11.1715 15.6941 7.78649 12.3291L6.90482 13.2149C10.5982 16.8874 14.114 17.0674 15.6215 16.9266L15.5048 15.6816ZM7.78649 12.3291C4.56065 9.12072 4.02565 6.42322 3.95899 5.25239L2.71065 5.32322C2.79399 6.79655 3.45649 9.78655 6.90482 13.2149L7.78649 12.3291ZM8.93232 7.17905L9.17149 6.94072L8.29149 6.05488L8.05232 6.29239L8.93232 7.17905ZM9.36149 3.91155L8.31149 2.50822L7.31065 3.25822L8.36065 4.66072L9.36149 3.91155ZM4.77732 2.20239L3.46899 3.50239L4.35065 4.38905L5.65815 3.08905L4.77732 2.20239ZM8.49232 6.73572C8.05065 6.29239 8.05065 6.29239 8.05065 6.29405H8.04899L8.04649 6.29738C8.00688 6.33731 7.97143 6.38115 7.94065 6.42822C7.89565 6.49488 7.84649 6.58239 7.80482 6.69322C7.70338 6.97932 7.67811 7.28689 7.73149 7.58572C7.84315 8.30655 8.33982 9.25905 9.61149 10.5241L10.4932 9.63739C9.30232 8.45405 9.01899 7.73405 8.96649 7.39405C8.94149 7.23238 8.96732 7.15239 8.97482 7.13405C8.97982 7.12294 8.97982 7.12127 8.97482 7.12905C8.96739 7.14055 8.95903 7.15142 8.94982 7.16155L8.94149 7.16988L8.93315 7.17738L8.49232 6.73572ZM9.61149 10.5241C10.884 11.7891 11.8415 12.2824 12.5632 12.3924C12.9323 12.4491 13.2298 12.4041 13.4557 12.3199C13.5822 12.2736 13.7003 12.2072 13.8057 12.1232L13.8473 12.0857L13.8532 12.0807L13.8557 12.0782L13.8565 12.0766C13.8565 12.0766 13.8573 12.0757 13.4165 11.6324C12.9748 11.1891 12.9773 11.1882 12.9773 11.1882L12.979 11.1866L12.9807 11.1849L12.9857 11.1807L12.994 11.1724L13.0257 11.1474C13.0334 11.1424 13.0315 11.1429 13.0198 11.1491C12.999 11.1566 12.9173 11.1824 12.7532 11.1574C12.4082 11.1041 11.6832 10.8207 10.4932 9.63739L9.61149 10.5241ZM8.31149 2.50739C7.46149 1.37405 5.79149 1.19405 4.77732 2.20239L5.65815 3.08905C6.10149 2.64822 6.88815 2.69405 7.31065 3.25822L8.31149 2.50739ZM3.95982 5.25322C3.94315 4.96489 4.07565 4.66322 4.35065 4.38989L3.46815 3.50322C3.02065 3.94822 2.66815 4.57822 2.71065 5.32322L3.95982 5.25322ZM16.2265 15.3032C15.9982 15.5316 15.7515 15.6599 15.5057 15.6824L15.6215 16.9266C16.234 16.8691 16.7348 16.5607 17.1082 16.1899L16.2265 15.3032ZM9.17149 6.94072C9.99232 6.12489 10.0532 4.83572 9.36232 3.91238L8.36149 4.66155C8.69732 5.11072 8.64732 5.69988 8.29065 6.05572L9.17149 6.94072ZM17.1048 12.4066C17.7857 12.7766 17.8915 13.6482 17.4107 14.1266L18.2923 15.0124C19.409 13.9016 19.0648 12.0491 17.7007 11.3082L17.1048 12.4066ZM14.2373 11.6991C14.5573 11.3807 15.0723 11.3024 15.5123 11.5407L16.109 10.4432C15.2057 9.95155 14.0857 10.0874 13.3557 10.8124L14.2373 11.6991Z" fill="#1D90D7"/>
</svg>
