<svg width="22" height="23" viewBox="0 0 22 23" fill="none" xmlns="http://www.w3.org/2000/svg">
<path d="M8.06668 10.7666C7.09422 10.7666 6.16159 10.3802 5.47396 9.69261C4.78632 9.00498 4.40002 8.07235 4.40002 7.09989V4.16655C4.40002 3.97206 4.47728 3.78553 4.6148 3.64801C4.75233 3.51048 4.93886 3.43322 5.13335 3.43322H5.86668C6.06118 3.43322 6.2477 3.35596 6.38523 3.21843C6.52275 3.0809 6.60002 2.89438 6.60002 2.69989C6.60002 2.50539 6.52275 2.31887 6.38523 2.18134C6.2477 2.04381 6.06118 1.96655 5.86668 1.96655H5.13335C4.54987 1.96655 3.99029 2.19834 3.57771 2.61092C3.16513 3.0235 2.93335 3.58308 2.93335 4.16655V7.09989C2.93429 7.92836 3.13632 8.74422 3.52207 9.47741C3.90782 10.2106 4.46578 10.8392 5.14802 11.3092C5.80415 11.8866 6.33618 12.5911 6.71183 13.3803C7.08748 14.1694 7.29893 15.0266 7.33335 15.8999C7.33335 17.2613 7.87418 18.567 8.83687 19.5297C9.79956 20.4924 11.1052 21.0332 12.4667 21.0332C13.8281 21.0332 15.1338 20.4924 16.0965 19.5297C17.0592 18.567 17.6 17.2613 17.6 15.8999V15.0639C18.2913 14.8854 18.8938 14.4609 19.2945 13.87C19.6952 13.2791 19.8666 12.5623 19.7766 11.8541C19.6867 11.1458 19.3415 10.4947 18.8058 10.0227C18.2701 9.55075 17.5806 9.29037 16.8667 9.29037C16.1527 9.29037 15.4633 9.55075 14.9276 10.0227C14.3919 10.4947 14.0467 11.1458 13.9567 11.8541C13.8668 12.5623 14.0382 13.2791 14.4389 13.87C14.8396 14.4609 15.4421 14.8854 16.1334 15.0639V15.8999C16.1334 16.8723 15.747 17.805 15.0594 18.4926C14.3718 19.1802 13.4391 19.5666 12.4667 19.5666C11.4942 19.5666 10.5616 19.1802 9.87396 18.4926C9.18632 17.805 8.80002 16.8723 8.80002 15.8999C8.83629 15.0255 9.05003 14.1676 9.42823 13.3785C9.80644 12.5893 10.3412 11.8853 11 11.3092C11.6795 10.8376 12.2346 10.2083 12.6178 9.47517C13.0009 8.74208 13.2007 7.92706 13.2 7.09989V4.16655C13.2 3.58308 12.9682 3.0235 12.5557 2.61092C12.1431 2.19834 11.5835 1.96655 11 1.96655H10.2667C10.0722 1.96655 9.88566 2.04381 9.74814 2.18134C9.61061 2.31887 9.53335 2.50539 9.53335 2.69989C9.53335 2.89438 9.61061 3.0809 9.74814 3.21843C9.88566 3.35596 10.0722 3.43322 10.2667 3.43322H11C11.1945 3.43322 11.381 3.51048 11.5186 3.64801C11.6561 3.78553 11.7333 3.97206 11.7333 4.16655V7.09989C11.7333 7.5814 11.6385 8.0582 11.4542 8.50306C11.27 8.94792 10.9999 9.35213 10.6594 9.69261C10.3189 10.0331 9.91472 10.3032 9.46986 10.4874C9.02499 10.6717 8.5482 10.7666 8.06668 10.7666ZM16.8667 13.6999C16.4777 13.6999 16.1046 13.5454 15.8296 13.2703C15.5545 12.9953 15.4 12.6222 15.4 12.2332C15.4 11.8442 15.5545 11.4712 15.8296 11.1961C16.1046 10.9211 16.4777 10.7666 16.8667 10.7666C17.2557 10.7666 17.6287 10.9211 17.9038 11.1961C18.1788 11.4712 18.3334 11.8442 18.3334 12.2332C18.3334 12.6222 18.1788 12.9953 17.9038 13.2703C17.6287 13.5454 17.2557 13.6999 16.8667 13.6999Z" fill="#1D90D7"/>
</svg>
