<svg width="50" height="50" viewBox="0 0 50 50" fill="none" xmlns="http://www.w3.org/2000/svg">
<path d="M4.16675 21.8747C4.16675 20.2705 4.19383 18.7018 4.25008 17.1872C4.423 12.2435 4.5105 9.77053 6.52091 7.74345C8.53133 5.71845 11.0751 5.61012 16.1584 5.39137C19.104 5.2677 22.0519 5.20658 25.0001 5.20803C28.0834 5.20803 31.0522 5.27053 33.8417 5.39137C38.9251 5.61012 41.4667 5.71845 43.4792 7.74553C45.4897 9.77053 45.5772 12.2435 45.7501 17.1872C45.86 20.3112 45.86 23.4382 45.7501 26.5622C45.5772 31.5059 45.4897 33.9789 43.4792 36.006C41.4688 38.031 38.9251 38.1393 33.8417 38.358C32.3112 38.4233 30.7313 38.4719 29.1022 38.5039C27.5605 38.533 26.7876 38.5455 26.1084 38.8059C25.4292 39.0664 24.8584 39.5518 23.7167 40.5309L19.1772 44.4268C18.9562 44.6161 18.6856 44.7381 18.3974 44.7782C18.1093 44.8184 17.8156 44.775 17.5514 44.6533C17.2871 44.5316 17.0633 44.3366 16.9065 44.0915C16.7497 43.8464 16.6665 43.5615 16.6667 43.2705V38.3789L16.1584 38.358C11.0751 38.1393 8.53341 38.0309 6.52091 36.0039C4.5105 33.9789 4.423 31.5059 4.25008 26.5622C4.19483 25.0003 4.16705 23.4376 4.16675 21.8747Z" stroke="#00B51B" stroke-width="3.125" stroke-linecap="round" stroke-linejoin="round"/>
<path d="M18.75 23.6107C18.75 23.6107 20.8333 23.6107 22.9167 27.0837C22.9167 27.0837 27.4521 18.4024 33.3333 16.667" stroke="#00B51B" stroke-width="3.125" stroke-linecap="round" stroke-linejoin="round"/>
</svg>
