<svg width="15" height="16" viewBox="0 0 15 16" fill="none" xmlns="http://www.w3.org/2000/svg">
<path d="M7.5 2.375H3.125C2.79348 2.375 2.47554 2.5067 2.24112 2.74112C2.0067 2.97554 1.875 3.29348 1.875 3.625V12.375C1.875 12.7065 2.0067 13.0245 2.24112 13.2589C2.47554 13.4933 2.79348 13.625 3.125 13.625H11.875C12.2065 13.625 12.5245 13.4933 12.7589 13.2589C12.9933 13.0245 13.125 12.7065 13.125 12.375V8" stroke="#464D5C" stroke-width="1.25" stroke-linecap="round" stroke-linejoin="round"/>
<path d="M11.4844 2.14052C11.7331 1.89188 12.0703 1.7522 12.4219 1.7522C12.7736 1.7522 13.1108 1.89188 13.3594 2.14052C13.6081 2.38916 13.7478 2.72639 13.7478 3.07802C13.7478 3.42965 13.6081 3.76688 13.3594 4.01552L7.72631 9.64927C7.5779 9.79755 7.39456 9.90609 7.19318 9.9649L5.39756 10.4899C5.34378 10.5056 5.28677 10.5065 5.2325 10.4926C5.17823 10.4787 5.1287 10.4505 5.08909 10.4109C5.04947 10.3713 5.02124 10.3217 5.00734 10.2675C4.99343 10.2132 4.99437 10.1562 5.01006 10.1024L5.53506 8.30677C5.59414 8.10555 5.70289 7.92243 5.85131 7.77427L11.4844 2.14052Z" stroke="#464D5C" stroke-width="1.25" stroke-linecap="round" stroke-linejoin="round"/>
</svg>
