<svg width="100" height="100" viewBox="0 0 100 100" fill="none" xmlns="http://www.w3.org/2000/svg">
<path d="M20.8333 50H12.5L50 12.5L87.5 50H79.1667M20.8333 50V79.1667C20.8333 81.3768 21.7113 83.4964 23.2741 85.0592C24.8369 86.622 26.9565 87.5 29.1667 87.5H70.8333C73.0435 87.5 75.1631 86.622 76.7259 85.0592C78.2887 83.4964 79.1667 81.3768 79.1667 79.1667V50" stroke="#0A0A0A" stroke-width="8.33333" stroke-linecap="round" stroke-linejoin="round"/>
<path d="M37.5 87.5V62.5C37.5 60.2899 38.378 58.1703 39.9408 56.6075C41.5036 55.0446 43.6232 54.1667 45.8333 54.1667H54.1667C56.3768 54.1667 58.4964 55.0446 60.0592 56.6075C61.622 58.1703 62.5 60.2899 62.5 62.5V87.5" stroke="#0A0A0A" stroke-width="8.33333" stroke-linecap="round" stroke-linejoin="round"/>
</svg>
