<svg width="100" height="100" viewBox="0 0 100 100" fill="none" xmlns="http://www.w3.org/2000/svg">
<path d="M65.625 54.1667C65.625 53.3379 65.2958 52.543 64.7097 51.957C64.1237 51.3709 63.3288 51.0417 62.5 51.0417H37.5C36.6712 51.0417 35.8763 51.3709 35.2903 51.957C34.7042 52.543 34.375 53.3379 34.375 54.1667C34.375 54.9955 34.7042 55.7903 35.2903 56.3764C35.8763 56.9624 36.6712 57.2917 37.5 57.2917H62.5C63.3288 57.2917 64.1237 56.9624 64.7097 56.3764C65.2958 55.7903 65.625 54.9955 65.625 54.1667ZM65.625 70.8334C65.625 70.0046 65.2958 69.2097 64.7097 68.6236C64.1237 68.0376 63.3288 67.7084 62.5 67.7084H37.5C36.6712 67.7084 35.8763 68.0376 35.2903 68.6236C34.7042 69.2097 34.375 70.0046 34.375 70.8334C34.375 71.6622 34.7042 72.457 35.2903 73.0431C35.8763 73.6291 36.6712 73.9584 37.5 73.9584H62.5C63.3288 73.9584 64.1237 73.6291 64.7097 73.0431C65.2958 72.457 65.625 71.6622 65.625 70.8334Z" fill="#0A0A0A"/>
<path fill-rule="evenodd" clip-rule="evenodd" d="M29.1668 9.375C26.1279 9.375 23.2134 10.5822 21.0646 12.7311C18.9157 14.8799 17.7085 17.7944 17.7085 20.8333V79.1667C17.7085 82.2056 18.9157 85.1201 21.0646 87.2689C23.2134 89.4178 26.1279 90.625 29.1668 90.625H70.8335C73.8724 90.625 76.7869 89.4178 78.9358 87.2689C81.0846 85.1201 82.2918 82.2056 82.2918 79.1667V33.2C82.2918 31.6125 81.7752 30.0708 80.8168 28.8042L68.3252 12.2708C67.6455 11.3713 66.7665 10.6417 65.7572 10.1392C64.748 9.63674 63.6359 9.37515 62.5085 9.375H29.1668ZM23.9585 20.8333C23.9585 17.9583 26.2918 15.625 29.1668 15.625H59.3752V33.9458C59.3752 35.6708 60.7752 37.0708 62.5002 37.0708H76.0418V79.1667C76.0418 82.0417 73.7085 84.375 70.8335 84.375H29.1668C26.2918 84.375 23.9585 82.0417 23.9585 79.1667V20.8333Z" fill="#0A0A0A"/>
</svg>
