<svg width="18" height="18" viewBox="0 0 18 18" fill="none" xmlns="http://www.w3.org/2000/svg">
<path d="M2.24992 6.1875C2.24984 5.53485 2.41199 4.89243 2.72178 4.31799C3.03157 3.74356 3.47929 3.25514 4.02467 2.89666C4.57005 2.53818 5.19598 2.32089 5.84616 2.26433C6.49635 2.20777 7.1504 2.3137 7.74949 2.57262C8.34858 2.83153 8.87391 3.2353 9.27825 3.74761C9.68258 4.25991 9.95323 4.86469 10.0659 5.50754C10.1785 6.1504 10.1295 6.81116 9.92344 7.43041C9.71735 8.04966 9.36056 8.60797 8.88517 9.05512C9.78147 9.49027 10.5597 10.135 11.1538 10.9348C11.748 11.7346 12.1406 12.6659 12.2984 13.6496C12.3158 13.7591 12.3114 13.8709 12.2856 13.9787C12.2597 14.0865 12.2129 14.1881 12.1477 14.2778C12.0826 14.3675 12.0004 14.4435 11.9059 14.5014C11.8114 14.5593 11.7065 14.5981 11.597 14.6154C11.4875 14.6328 11.3757 14.6284 11.2679 14.6026C11.1601 14.5767 11.0585 14.5299 10.9688 14.4647C10.8791 14.3996 10.8031 14.3174 10.7452 14.2229C10.6873 14.1285 10.6485 14.0235 10.6312 13.914C10.4624 12.8568 9.92234 11.8945 9.10789 11.1997C8.29343 10.5049 7.25796 10.1233 6.18742 10.1233C5.11689 10.1233 4.08142 10.5049 3.26696 11.1997C2.4525 11.8945 1.91241 12.8568 1.74367 13.914C1.72624 14.0235 1.68741 14.1284 1.62941 14.2229C1.57141 14.3174 1.49538 14.3995 1.40564 14.4646C1.3159 14.5297 1.21423 14.5764 1.10642 14.6022C0.998605 14.628 0.88677 14.6323 0.777297 14.6149C0.667823 14.5974 0.562856 14.5586 0.468387 14.5006C0.373918 14.4426 0.291799 14.3666 0.226716 14.2768C0.161634 14.1871 0.114864 14.0854 0.0890763 13.9776C0.0632887 13.8698 0.0589887 13.758 0.0764216 13.6485C0.233666 12.6648 0.62609 11.7336 1.22034 10.9341C1.81459 10.1346 2.59309 9.4904 3.48967 9.05625C3.09817 8.688 2.78621 8.24351 2.573 7.75014C2.35978 7.25677 2.24983 6.72497 2.24992 6.1875ZM12.3749 4.5C13.0286 4.50045 13.668 4.69064 14.2157 5.04748C14.7633 5.40431 15.1956 5.91245 15.46 6.5102C15.7245 7.10796 15.8097 7.76962 15.7054 8.41489C15.6011 9.06015 15.3117 9.66126 14.8724 10.1452C15.5576 10.4847 16.1663 10.9602 16.6615 11.5428C17.1567 12.1254 17.5279 12.8029 17.7524 13.5337C17.797 13.6756 17.8033 13.8267 17.7706 13.9717C17.7379 14.1168 17.6675 14.2506 17.5663 14.3596C17.4652 14.4686 17.3371 14.5489 17.1949 14.5923C17.0527 14.6358 16.9016 14.6408 16.7568 14.607C16.6121 14.5735 16.4787 14.5024 16.3703 14.4009C16.2618 14.2993 16.1821 14.171 16.1392 14.0287C15.9373 13.3766 15.5697 12.788 15.0725 12.3203C14.5752 11.8526 13.9652 11.5219 13.3019 11.3602C13.1177 11.3158 12.9538 11.2106 12.8367 11.0616C12.7195 10.9126 12.6559 10.7285 12.6562 10.539V10.143C12.6561 9.98591 12.6998 9.83192 12.7825 9.69835C12.8652 9.56478 12.9835 9.45695 13.1242 9.387C13.4652 9.21797 13.7391 8.9386 13.9014 8.59426C14.0636 8.24993 14.1047 7.86085 14.0179 7.49023C13.9311 7.11961 13.7215 6.78922 13.4233 6.55273C13.125 6.31623 12.7556 6.18752 12.3749 6.1875C12.1511 6.1875 11.9365 6.0986 11.7783 5.94037C11.6201 5.78213 11.5312 5.56752 11.5312 5.34375C11.5312 5.11997 11.6201 4.90536 11.7783 4.74713C11.9365 4.58889 12.1511 4.5 12.3749 4.5ZM6.18742 3.9375C5.88779 3.93072 5.58982 3.98388 5.31102 4.09384C5.03221 4.2038 4.77819 4.36836 4.56385 4.57785C4.34952 4.78734 4.1792 5.03754 4.06289 5.31376C3.94658 5.58998 3.88663 5.88665 3.88655 6.18636C3.88648 6.48607 3.94628 6.78277 4.06245 7.05905C4.17862 7.33533 4.34882 7.58561 4.56305 7.79521C4.77728 8.0048 5.03122 8.16949 5.30997 8.27959C5.58872 8.38969 5.88666 8.443 6.1863 8.43637C6.77418 8.42337 7.33361 8.18074 7.74484 7.76043C8.15607 7.34011 8.38641 6.77551 8.38655 6.18748C8.3867 5.59946 8.15664 5.03474 7.74562 4.61422C7.33461 4.1937 6.7753 3.95079 6.18742 3.9375Z" fill="#1D90D7"/>
</svg>
