<svg width="18" height="18" viewBox="0 0 18 18" fill="none" xmlns="http://www.w3.org/2000/svg">
<path d="M6.75 7.5L9.1935 9.333C9.34488 9.44653 9.53358 9.49865 9.72178 9.4789C9.90997 9.45915 10.0837 9.36899 10.2083 9.2265L15 3.75" stroke="#00B51B" stroke-width="1.5" stroke-linecap="round"/>
<path d="M15.75 8.99988C15.75 10.4103 15.3083 11.7852 14.4867 12.9317C13.6652 14.0781 12.5052 14.9384 11.1697 15.3918C9.83414 15.8451 8.39013 15.8688 7.04048 15.4593C5.69082 15.0499 4.50332 14.228 3.64476 13.109C2.78619 11.99 2.2997 10.6302 2.25361 9.2206C2.20751 7.81096 2.60414 6.42228 3.38777 5.24962C4.1714 4.07696 5.30267 3.17922 6.6227 2.68249C7.94273 2.18576 9.38519 2.11499 10.7475 2.48013" stroke="#00B51B" stroke-width="1.5" stroke-linecap="round"/>
</svg>
