<svg width="20" height="20" viewBox="0 0 20 20" fill="none" xmlns="http://www.w3.org/2000/svg">
<g clip-path="url(#clip0_375_20)">
<path d="M15.5469 9.78984L11.65 8.35312L10.2102 4.45312C10.1001 4.15451 9.90109 3.89684 9.64 3.71484C9.37892 3.53284 9.06831 3.43526 8.75004 3.43526C8.43178 3.43526 8.12117 3.53284 7.86008 3.71484C7.599 3.89684 7.39999 4.15451 7.28989 4.45312L5.85317 8.35312L1.95317 9.78984C1.65456 9.89995 1.39688 10.099 1.21488 10.36C1.03288 10.6211 0.935303 10.9317 0.935303 11.25C0.935303 11.5683 1.03288 11.8789 1.21488 12.14C1.39688 12.401 1.65456 12.6001 1.95317 12.7102L5.85004 14.1469L7.28989 18.0469C7.39999 18.3455 7.599 18.6032 7.86008 18.7852C8.12117 18.9672 8.43178 19.0647 8.75004 19.0647C9.06831 19.0647 9.37892 18.9672 9.64 18.7852C9.90109 18.6032 10.1001 18.3455 10.2102 18.0469L11.6469 14.15L15.5469 12.7102C15.8455 12.6001 16.1032 12.401 16.2852 12.14C16.4672 11.8789 16.5648 11.5683 16.5648 11.25C16.5648 10.9317 16.4672 10.6211 16.2852 10.36C16.1032 10.099 15.8455 9.89995 15.5469 9.78984ZM10.5954 12.5367C10.4681 12.5836 10.3525 12.6576 10.2566 12.7535C10.1607 12.8494 10.0868 12.9649 10.0399 13.0922L8.75004 16.5844L7.46332 13.0922C7.41643 12.9649 7.34247 12.8494 7.24658 12.7535C7.15068 12.6576 7.03511 12.5836 6.90786 12.5367L3.41567 11.25L6.90786 9.96328C7.03511 9.91638 7.15068 9.84243 7.24658 9.74653C7.34247 9.65063 7.41643 9.53507 7.46332 9.40781L8.75004 5.91563L10.0368 9.40781C10.0837 9.53507 10.1576 9.65063 10.2535 9.74653C10.3494 9.84243 10.465 9.91638 10.5922 9.96328L14.0844 11.25L10.5954 12.5367ZM10.9375 3.125C10.9375 2.87636 11.0363 2.6379 11.2121 2.46209C11.3879 2.28627 11.6264 2.1875 11.875 2.1875H12.8125V1.25C12.8125 1.00136 12.9113 0.762903 13.0871 0.587087C13.2629 0.411272 13.5014 0.3125 13.75 0.3125C13.9987 0.3125 14.2371 0.411272 14.413 0.587087C14.5888 0.762903 14.6875 1.00136 14.6875 1.25V2.1875H15.625C15.8737 2.1875 16.1121 2.28627 16.288 2.46209C16.4638 2.6379 16.5625 2.87636 16.5625 3.125C16.5625 3.37364 16.4638 3.6121 16.288 3.78791C16.1121 3.96373 15.8737 4.0625 15.625 4.0625H14.6875V5C14.6875 5.24864 14.5888 5.4871 14.413 5.66291C14.2371 5.83873 13.9987 5.9375 13.75 5.9375C13.5014 5.9375 13.2629 5.83873 13.0871 5.66291C12.9113 5.4871 12.8125 5.24864 12.8125 5V4.0625H11.875C11.6264 4.0625 11.3879 3.96373 11.2121 3.78791C11.0363 3.6121 10.9375 3.37364 10.9375 3.125ZM19.6875 6.875C19.6875 7.12364 19.5888 7.3621 19.413 7.53791C19.2371 7.71373 18.9987 7.8125 18.75 7.8125H18.4375V8.125C18.4375 8.37364 18.3388 8.6121 18.163 8.78791C17.9871 8.96373 17.7487 9.0625 17.5 9.0625C17.2514 9.0625 17.0129 8.96373 16.8371 8.78791C16.6613 8.6121 16.5625 8.37364 16.5625 8.125V7.8125H16.25C16.0014 7.8125 15.7629 7.71373 15.5871 7.53791C15.4113 7.3621 15.3125 7.12364 15.3125 6.875C15.3125 6.62636 15.4113 6.3879 15.5871 6.21209C15.7629 6.03627 16.0014 5.9375 16.25 5.9375H16.5625V5.625C16.5625 5.37636 16.6613 5.1379 16.8371 4.96209C17.0129 4.78627 17.2514 4.6875 17.5 4.6875C17.7487 4.6875 17.9871 4.78627 18.163 4.96209C18.3388 5.1379 18.4375 5.37636 18.4375 5.625V5.9375H18.75C18.9987 5.9375 19.2371 6.03627 19.413 6.21209C19.5888 6.3879 19.6875 6.62636 19.6875 6.875Z" fill="#006ED4"/>
</g>
<defs>
<clipPath id="clip0_375_20">
<rect width="20" height="20" fill="white"/>
</clipPath>
</defs>
</svg>
