<svg width="19" height="18" viewBox="0 0 19 18" fill="none" xmlns="http://www.w3.org/2000/svg">
<path d="M12.6875 15.75V12.1763C12.6873 12.0195 12.6562 11.8644 12.596 11.7197C12.5358 11.575 12.4477 11.4436 12.3366 11.3329C12.2256 11.2223 12.0939 11.1347 11.9489 11.075C11.804 11.0154 11.6487 10.9849 11.492 10.9853H7.508C7.35127 10.9849 7.196 11.0154 7.05108 11.075C6.90615 11.1347 6.7744 11.2223 6.66337 11.3329C6.55233 11.4436 6.46419 11.575 6.40399 11.7197C6.34379 11.8644 6.3127 12.0195 6.3125 12.1763V15.75M12.6875 2.46376V4.23526C12.6873 4.39199 12.6562 4.54714 12.596 4.69184C12.5358 4.83654 12.4477 4.96796 12.3366 5.07857C12.2256 5.18919 12.0939 5.27683 11.9489 5.33649C11.804 5.39615 11.6487 5.42665 11.492 5.42626H7.508C7.35127 5.42665 7.196 5.39615 7.05108 5.33649C6.90615 5.27683 6.7744 5.18919 6.66337 5.07857C6.55233 4.96796 6.46419 4.83654 6.40399 4.69184C6.34379 4.54714 6.3127 4.39199 6.3125 4.23526V2.25001M12.6875 2.46376C12.3765 2.3229 12.0389 2.25002 11.6975 2.25001H6.3125M12.6875 2.46376C12.9455 2.58076 13.1833 2.74426 13.388 2.94751L15.1745 4.72876C15.3963 4.9495 15.5724 5.21186 15.6926 5.5008C15.8128 5.78974 15.8748 6.09956 15.875 6.41251V13.3665C15.8748 13.68 15.8128 13.9904 15.6925 14.28C15.5722 14.5695 15.3961 14.8325 15.1741 15.0538C14.9521 15.2752 14.6886 15.4507 14.3987 15.5701C14.1088 15.6896 13.7983 15.7507 13.4847 15.75H5.516C5.20248 15.7508 4.89188 15.6898 4.60198 15.5704C4.31207 15.451 4.04854 15.2757 3.82647 15.0544C3.60439 14.8331 3.42813 14.5701 3.30777 14.2807C3.1874 13.9912 3.12529 13.6808 3.125 13.3673V4.63201C3.12539 4.31855 3.18757 4.00825 3.30798 3.71884C3.42839 3.42943 3.60467 3.1666 3.82673 2.94537C4.0488 2.72414 4.31229 2.54886 4.60215 2.42954C4.89201 2.31023 5.20255 2.24922 5.516 2.25001H6.3125" stroke="white" stroke-width="1.125" stroke-linecap="round" stroke-linejoin="round"/>
</svg>
