<svg width="35" height="35" viewBox="0 0 35 35" fill="none" xmlns="http://www.w3.org/2000/svg">
<path d="M30.9897 18.9584V12.3959C30.9897 10.462 30.2214 8.60738 28.854 7.23993C27.4865 5.87247 25.6319 5.10425 23.698 5.10425H11.3022C9.36829 5.10425 7.51363 5.87247 6.14618 7.23993C4.77872 8.60738 4.0105 10.462 4.0105 12.3959V22.6042C4.0105 23.5618 4.1991 24.51 4.56554 25.3946C4.93198 26.2793 5.46908 27.0831 6.14618 27.7602C7.51363 29.1277 9.36829 29.8959 11.3022 29.8959H20.4313" stroke="#6B7280" stroke-width="2.1875" stroke-linecap="round" stroke-linejoin="round"/>
<path d="M4.38965 24.7914L8.38548 20.1247C8.91025 19.6035 9.59898 19.2796 10.3351 19.2079C11.0712 19.1361 11.8095 19.3209 12.4251 19.731C13.0406 20.141 13.7789 20.3258 14.515 20.254C15.2512 20.1823 15.9399 19.8584 16.4646 19.3372L19.8626 15.9393C20.8389 14.9596 22.1316 14.3588 23.5099 14.2439C24.8882 14.129 26.2625 14.5077 27.3876 15.3122L30.9896 18.0976M11.6813 14.831C11.9992 14.8291 12.3136 14.7645 12.6066 14.6411C12.8996 14.5177 13.1654 14.3378 13.3888 14.1116C13.6123 13.8855 13.789 13.6175 13.9089 13.3231C14.0288 13.0286 14.0895 12.7135 14.0876 12.3956C14.0856 12.0776 14.0211 11.7632 13.8977 11.4702C13.7743 11.1773 13.5944 10.9115 13.3682 10.688C13.1421 10.4646 12.8741 10.2879 12.5797 10.168C12.2852 10.0481 11.9701 9.98739 11.6521 9.9893C11.0101 9.99317 10.3959 10.2519 9.94463 10.7087C9.49337 11.1654 9.24203 11.7827 9.2459 12.4247C9.24977 13.0668 9.50853 13.681 9.96526 14.1322C10.422 14.5835 11.0393 14.8348 11.6813 14.831Z" stroke="#6B7280" stroke-width="2.1875" stroke-linecap="round" stroke-linejoin="round"/>
<path d="M27.281 21.875V29.1667" stroke="#6B7280" stroke-width="2.1875" stroke-miterlimit="10" stroke-linecap="round"/>
<path d="M30.6252 24.9448L27.7566 22.0762C27.6943 22.0136 27.6202 21.9639 27.5386 21.93C27.457 21.8961 27.3696 21.8787 27.2812 21.8787C27.1929 21.8787 27.1054 21.8961 27.0238 21.93C26.9422 21.9639 26.8681 22.0136 26.8058 22.0762L23.9373 24.9448" stroke="#6B7280" stroke-width="2.1875" stroke-linecap="round" stroke-linejoin="round"/>
</svg>
